<?xml version="1.0" encoding="utf-8"?>
<!-- Generator: Adobe Illustrator 16.0.4, SVG Export Plug-In . SVG Version: 6.00 Build 0)  -->
<!DOCTYPE svg PUBLIC "-//W3C//DTD SVG 1.1//EN" "http://www.w3.org/Graphics/SVG/1.1/DTD/svg11.dtd">
<svg version="1.1" id="Layer_1" xmlns="http://www.w3.org/2000/svg" xmlns:xlink="http://www.w3.org/1999/xlink" x="0px" y="0px"
	 width="173.312px" height="73.046px" viewBox="0 22.917 173.312 73.046" enable-background="new 0 22.917 173.312 73.046"
	 xml:space="preserve">
<g id="Group_1_xA0_Image_1_">
</g>
<g id="Layer_2">
</g>
<g id="Layer_3">
</g>
<g id="Layer_4">
	<g>
		<g>
			<g>
				<circle fill="#5598D1" cx="109.475" cy="69.502" r="1.96"/>
				<path fill="#5598D1" d="M106.757,56.788v-31c0,0,0.24-2.87,2.87-2.87s47.13,0,47.13,0s2.667-0.13,2.667,3.037s0,29.833,0,29.833
					s0.333,3.5-2.833,3.5s-24.667,0-24.667,0L110.59,71.122l-2.667-2.833l7-9h-5.5C109.423,59.288,106.757,59.121,106.757,56.788z"
					/>
			</g>
			<circle fill="#7AAFDB" cx="120.953" cy="40.587" r="3.951"/>
			<circle fill="#7AAFDB" cx="133.011" cy="40.587" r="3.951"/>
			<circle fill="#7AAFDB" cx="145.237" cy="40.587" r="3.951"/>
		</g>
		<g>
			<ellipse fill="#5598D1" cx="166.215" cy="76.332" rx="1.587" ry="1.556"/>
			<path fill="#5598D1" d="M166.092,39.373c-0.43,0-2.256,0-4.874,0c0,8.442,0,18.304,0,18.304s0.342,3.5-2.9,3.5
				s-25.253,0-25.253,0l-7.285,3.947c0,0.206,0,0.328,0,0.328s-0.27,2.777,2.294,2.777s19.969,0,19.969,0l17.271,9.389l2.159-2.248
				l-5.667-7.141h4.452c0,0,2.159-0.133,2.159-1.983V41.649C168.416,41.649,168.221,39.373,166.092,39.373z"/>
		</g>
	</g>
	<g>
		<path fill="#FFFFFF" d="M5.763,80.751h0.924c0.98,0,1.442-0.23,1.79-1.27l12.18-33.308h7.908l12.122,33.308
			c0.346,1.039,0.808,1.27,1.79,1.27H43.4v6.407h-4.502c-2.886,0-3.925-0.75-4.85-3.349l-2.54-7.158H17.654l-2.54,7.158
			c-0.924,2.599-1.905,3.349-4.791,3.349h-4.56V80.751z M29.776,70.419l-3.521-10.275c-0.75-2.25-1.615-6.119-1.615-6.119h-0.115
			c0,0-0.866,3.869-1.617,6.119l-3.521,10.275H29.776z"/>
		<path fill="#FFFFFF" d="M48.937,77.808c0,0,3.752,4.33,8.773,4.33c2.251,0,3.983-0.925,3.983-2.887
			c0-4.156-15.528-4.1-15.528-13.623c0-5.888,5.312-8.602,11.43-8.602c3.982,0,10.333,1.328,10.333,6.119v3.061h-6.466v-1.443
			c0-1.385-2.078-2.078-3.693-2.078c-2.599,0-4.388,0.924-4.388,2.655c0,4.618,15.645,3.694,15.645,13.507
			c0,5.543-4.907,9.006-11.314,9.006c-8.082,0-12.237-5.254-12.237-5.254L48.937,77.808z"/>
		<path fill="#FFFFFF" d="M75.601,53.679c0-0.865-0.461-1.27-1.271-1.27h-2.309v-6.234h6.983c2.713,0,3.926,0.635,3.926,3.348V68.11
			h2.192c0.924,0,2.136-0.174,2.771-1.098l6.003-9.294h8.139l-7.446,11.083c-1.27,1.848-2.192,2.309-2.192,2.309v0.117
			c0,0,1.039,0.403,2.078,2.309l3.348,6.35c0.462,0.866,1.039,1.098,2.425,1.098h1.962v6.176h-5.426
			c-2.481,0-3.464-0.404-4.618-2.54l-4.907-9.236c-0.576-1.039-1.788-1.097-2.713-1.097h-1.615v12.873H75.6L75.601,53.679
			L75.601,53.679z"/>
	</g>
</g>
</svg>
