<?xml version="1.0" encoding="utf-8"?>
<!-- Generator: Adobe Illustrator 16.0.4, SVG Export Plug-In . SVG Version: 6.00 Build 0)  -->
<!DOCTYPE svg PUBLIC "-//W3C//DTD SVG 1.1//EN" "http://www.w3.org/Graphics/SVG/1.1/DTD/svg11.dtd">
<svg version="1.1" id="Livello_1" xmlns="http://www.w3.org/2000/svg" xmlns:xlink="http://www.w3.org/1999/xlink" x="0px" y="0px"
	 width="141.732px" height="141.732px" viewBox="0 0 141.732 141.732" enable-background="new 0 0 141.732 141.732"
	 xml:space="preserve">
<g id="Livello_1_1_">
</g>
<path fill="#AFAFAF" d="M124.027,112.912L87.45,76.151c13.459-18.786,11.799-45.08-5.042-62.006
	C63.637-4.721,33.124-4.799,14.257,13.972C-4.61,32.743-4.688,63.256,14.084,82.123c16.841,16.927,43.126,18.72,61.979,5.356
	l36.605,36.791L124.027,112.912z M72.833,68.269l-4.58,4.555c-12.644,10.299-31.281,9.527-43.029-2.279
	c-12.516-12.58-12.46-32.919,0.118-45.432c12.58-12.514,32.917-12.464,45.432,0.115C82.519,37.034,83.194,55.675,72.833,68.269z"/>
</svg>
